# xmcd
#
# Track frame offsets: 
#        150
#        13233
#        31176
#        45955
#        61077
#        78726
#        95834
#        109959
#        124819
#        138931
#        154008
#        168006
#
# Disc length: 2426 seconds
#
# Revision: 1
# Processed by: cddbd v1.5.2PL0 Copyright (c) Steve Scherf et al.
# Submitted via: ExactAudioCopy v0.95b4
#
DISCID=9309780c
DTITLE=Various Artisits - Ultimate Country Classics Volume 4 [CD2]
DYEAR=2003
DGENRE=country
TTITLE0=Oak Ridge Boys - Bobbie Sue
TTITLE1=Hank Williams, Jr. - All My Rowdy Friends (Have Settled Down)
TTITLE2=Waylon Jennings - Luckenbach, Texas (Back To The Basics Of Lov
TTITLE2=e)
TTITLE3=The Forester Sisters - Men
TTITLE4=Linda Ronstadt - Blue Bayou
TTITLE5=T.G. Sheppard - Last Cheater's Waltz
TTITLE6=Loretta Lynn - She's Got You
TTITLE7=Highway 101 - Somwhere Tonight
TTITLE8=Margo Smith - It Only Hurts For A Little While
TTITLE9=George Straight - I Always Get Lucky With You
TTITLE10=Randy Travis - On The Other Hand
TTITLE11=Emmylou Harris - Two More Bottles Of Wine
EXTD=
EXTT0=
EXTT1=
EXTT2=
EXTT3=
EXTT4=
EXTT5=
EXTT6=
EXTT7=
EXTT8=
EXTT9=
EXTT10=
EXTT11=
PLAYORDER=
